<?xml version="1.0" encoding="utf-8"?>
<svg version="1.1" id="Layer_1" xmlns="http://www.w3.org/2000/svg" xmlns:xlink="http://www.w3.org/1999/xlink" x="0px" y="0px"
	 viewBox="0 0 512 512" style="enable-background:new 0 0 512 512;" xml:space="preserve">
<style type="text/css">
	.st0{fill:#41479B;}
	.st1{fill:#F5F5F5;}
	.st2{fill:#FF4B55;}
</style>
<path class="st0" d="M473.7,88.3H38.3C17.2,88.3,0,105.4,0,126.6v258.8c0,21.2,17.2,38.3,38.3,38.3h435.3
	c21.2,0,38.3-17.2,38.3-38.3V126.6C512,105.4,494.8,88.3,473.7,88.3z"/>
<path class="st1" d="M511.5,120.3c-3-18.2-18.8-32-37.8-32h-10L300.1,195.4V88.3h-88.3v107.1L48.3,88.3h-10c-19,0-34.8,13.8-37.8,32
	l139.8,91.6H0v88.3h140.3L0.5,391.7c3,18.2,18.8,32,37.8,32h10l163.5-107.1v107.1h88.3V316.6l163.5,107.1h10c19,0,34.8-13.8,37.8-32
	l-139.8-91.6H512v-88.3H371.7L511.5,120.3z"/>
<g>
	<polygon class="st2" points="282.5,88.3 229.5,88.3 229.5,229.5 0,229.5 0,282.5 229.5,282.5 229.5,423.7 282.5,423.7 282.5,282.5
		512,282.5 512,229.5 282.5,229.5 	"/>
	<path class="st2" d="M24.8,421.3l186.6-121.1h-32.4L9.2,410.3C13.4,415.2,18.7,419,24.8,421.3z"/>
	<path class="st2" d="M346.4,300.1H314l180.7,117.3c5.1-3.3,9.3-7.8,12.3-13.1L346.4,300.1z"/>
	<path class="st2" d="M4,109.5l157.7,102.4h32.4L15.5,95.8C10.7,99.4,6.7,104.1,4,109.5z"/>
	<path class="st2" d="M332.6,211.9l170-110.4c-4.2-4.8-9.6-8.6-15.7-10.9L300.1,211.9H332.6z"/>
</g>
</svg>
